<?xml version="1.0" standalone="no"?>
<!DOCTYPE svg PUBLIC "-//W3C//DTD SVG 20010904//EN"
 "http://www.w3.org/TR/2001/REC-SVG-20010904/DTD/svg10.dtd">
<svg version="1.0" xmlns="http://www.w3.org/2000/svg"
 width="500.000000pt" height="500.000000pt" viewBox="0 0 500.000000 500.000000"
 preserveAspectRatio="xMidYMid meet">
<metadata>
Created by potrace 1.14, written by Peter Selinger 2001-2017
</metadata>
<g transform="translate(0.000000,500.000000) scale(0.100000,-0.100000)"
fill="#000000" stroke="none">
<path d="M113 4885 c-17 -7 -36 -22 -42 -34 -8 -13 -11 -251 -11 -764 l0 -744
557 1 558 1 1 165 c1 232 7 249 87 259 l42 6 0 560 0 560 -580 2 c-476 2 -586
0 -612 -12z"/>
<path d="M1350 4843 c-1 -74 -1 -1021 0 -1049 l0 -22 538 0 537 0 0 562 0 561
-537 3 -538 2 0 -57z"/>
<path d="M2469 4885 c0 -8 0 -240 0 -515 0 -275 0 -522 0 -549 l1 -49 533 2
532 1 1 563 1 562 -533 0 c-468 0 -534 -2 -535 -15z"/>
<path d="M3583 4336 l0 -564 116 0 c64 1 126 -2 138 -6 36 -11 64 -90 67 -181
l1 -30 516 0 516 0 -1 648 -1 649 -30 24 -30 23 -646 1 -646 0 0 -564z"/>
<path d="M3907 3503 c-3 -5 -5 -141 -5 -304 0 -163 -3 -306 -6 -317 -5 -16 10
-34 75 -93 46 -41 109 -99 142 -129 32 -30 67 -61 76 -70 17 -14 169 -151 195
-175 6 -5 51 -46 101 -90 49 -44 112 -100 139 -125 27 -25 54 -49 60 -55 6 -5
54 -48 106 -95 52 -47 103 -93 114 -102 11 -10 23 -18 26 -18 4 0 7 355 7 790
l0 790 -513 0 c-282 0 -515 -3 -517 -7z"/>
<path d="M60 2486 l0 -814 555 0 c305 1 556 4 556 7 1 3 2 369 3 814 l1 807
-557 0 -558 0 0 -814z"/>
<path d="M1989 2822 l-26 -3 27 -52 c15 -29 44 -95 65 -147 20 -52 40 -104 45
-115 4 -11 20 -54 35 -96 l26 -76 -41 -89 c-23 -49 -62 -136 -86 -193 -46
-104 -70 -150 -89 -163 -5 -4 112 -8 261 -8 l271 0 0 470 0 470 -31 1 c-131 3
-436 3 -457 1z"/>
<path d="M2520 2355 l0 -475 254 0 255 0 0 474 -1 473 -254 1 -254 1 0 -474z"/>
<path d="M3091 2820 c-5 -3 -8 -214 -7 -470 l1 -465 250 -3 250 -2 0 472 0
473 -243 0 c-134 0 -247 -2 -251 -5z"/>
<path d="M3634 2821 c-2 -2 -4 -215 -4 -473 l0 -468 635 0 c349 0 635 4 635 8
0 4 -33 36 -72 71 -40 35 -111 98 -158 140 -46 42 -98 88 -115 103 -16 15 -39
36 -50 46 -11 11 -47 43 -80 73 -77 68 -244 219 -265 239 -9 8 -56 51 -106 95
-49 43 -96 86 -105 95 -84 80 -74 76 -198 76 -62 -1 -115 -3 -117 -5z"/>
<path d="M62 883 l3 -745 22 -17 c21 -17 81 -18 1042 -18 l1021 0 0 563 0 563
-462 0 -463 0 -22 26 c-13 14 -23 38 -24 53 0 15 -2 92 -3 172 l-1 145 -558 1
-557 2 2 -745z"/>
<path d="M2196 1222 c-2 -4 -4 -257 -4 -563 l0 -556 1261 0 1260 0 21 22 c12
13 32 51 45 86 55 149 151 446 151 467 0 33 -126 405 -163 482 l-32 65 -1267
2 c-697 1 -1270 -1 -1272 -5z"/>
</g>
</svg>
